<svg xmlns="http://www.w3.org/2000/svg" width="100%" viewBox="0 0 182 379" fill="none"><g class="Orientation=Front, Sex=Male"><g class=".Body/Male/Front"><g class="Union"><path fill="#343542" fill-rule="evenodd" d="M54.1 62.5c-12.3 5.3-14.9 17.6-12.7 33.143-.08 2-.67 2.8-2.1 2.9-5.3 7.4-6.4 17.8-.13 1.2-.785 2.3-1.7 3.1-4.1 3.3-8.6 8.9-9.9 13.3-.423 1.4-.852 3.1-1.3 5.1-1.2 4.7-2.6 10.6-5 16.2a4.4 4.4 0 01-.285.5c-1.2 2-3.1 5.9-3.8 7.7-4.2 2-11.8 6.8-11 9.5.66 2.3 2.8.704 4.1-.228.7-.481 1.1-.783.9-.272-.528 1.6-1.1 2.8-1.6 3.9-.808 1.7-1.5 3.2-1.9 5.6-.392 2.7 1.4 5.8 7.9 6 4.2.143 7.9-2.6 9.4-6.5 2.6-6.6 2.4-11.4 2.1-12.6.293-.439.6-1.1.986-1.9 1.5-3 4.1-8.6 12-16.1.496-.471 1-.96 1.6-1.5 5.1-4.7 12.3-11.2 11.9-24-.218-1.3.99-2.6 2.5-4.3 1.3-1.4 2.9-3.2 4-5.3.435-.913 2.1-1.1 2.6-.193 1.8 3.3 4.2 7.3 6.4 10.3 1.5 2 .5 8-.5 11.5a57.6 57.6 0 01-.486 1.6c-1.1 3.4-2.5 8-1 14.4 2.3 9.7-.297 18.3-3.3 28.2-2.7 8.9-5.7 19-5.7 31.8 0 17.5 1.7 24.1 3.3 30.2.865 3.3 1.7 6.5 2.2 11.3.33 3.1-.586 7.4-1.7 12.8-2.4 11-5.8 26.9-1.8 47.7.521 2.7 1.4 6.2 2.4 10.1 3.1 12 7.1 27.5 3.6 33.4-3.2 5.5-8.1 8.7-12.4 11.5-2.3 1.5-4.5 2.9-6.1 4.5-3.5 3.5 12 6.5 25 2 3.2-1.1 4.7-1.1 5.9-1.1.871 1.6.03 2.6-.437 2.5-1.1 2.2-3.7 1.5-11.9-.591-6.9-1.5-17.8-1.5-35.1 0-2.7.966-5.5 2.1-8.8 1.6-4.5 3.4-9.9 3.4-17.2 0-8.6-1.6-15.4-2.7-20.1-.74-3.2-1.2-5.4-.837-6.4l.16-.398c1.7-4.3 5.9-14.6 6.8-44.1.049-1.5.55-4.8 1.2-9 1.3-8.6 3.2-20.8 2.8-28.5-.022-.508.8-.285 1.4-.12.2.55.4.104.5.117v.003l.027-.1.001v-.003c.12-.13.3-.62.5-.117.6-.165 1.5-.388 1.4.12-.336 7.7 1.5 20 2.8 28.5.634 4.2 1.1 7.5 1.2 9.968 29.5 5.1 39.9 6.8 44.1l.16.4c.407 1-.097 3.2-.837 6.4-1.1 4.7-2.7 11.5-2.7 20.1 0 7.3 1.9 12.7 3.4 17.2 1.1 3.3 2.1 6.1 2.1 8.8 0 17.3-.932 28.2-1.5 35.1-.709 8.3-.929 10.8 1.5 11.9 1.1.467 1.7.454 2.6.437 1.2-.023 2.7-.052 5.9 1.1 13 4.5 28.5 1.5 25-2-1.6-1.6-3.8-3-6.1-4.5-4.3-2.8-9.2-6-12.4-11.5-3.5-5.9.49-21.4 3.6-33.4 1-3.9 1.9-7.4 2.4-10.1 4-20.8.622-36.7-1.8-47.7-1.2-5.4-2.1-9.7-1.7-12.8.498-4.7 1.3-7.9 2.2-11.3 1.6-6.1 3.3-12.7 3.3-30.2 0-12.8-3-22.8-5.7-31.8-3-9.9-5.6-18.5-3.3-28.2 1.5-6.4.063-11-1-14.4-.177-.558-.344-1.1-.486-1.6-1-3.5-2-9.5-.5-11.5 2.2-2.9 4.7-7 6.4-10.3.472-.894 2.2-.72 2.6.193 1 2.2 2.6 3.9 4 5.3 1.5 1.6 2.7 2.9 2.5 4.3-.349 12.8 6.8 19.4 11.9 24.559.5 1.1 1 1.6 1.5 7.9 7.5 10.6 13.1 12 16.1.39.8.693 1.4.986 1.9-.256 1.2-.417 6 2.1 12.6 1.5 3.9 5.3 6.6 9.4 6.5 6.6-.226 8.3-3.3 7.9-6-.344-2.4-1.1-3.9-1.9-5.6-.531-1.1-1.1-2.3-1.6-3.9-.17-.511.2-.209.9.272 1.3.932 3.4 2.5 4.1.228.8-2.7-6.8-7.5-11-9.5-.724-1.8-2.6-5.8-3.8-7.7a4.3 4.3 0 01-.285-.545c-2.4-5.6-3.9-11.5-5-16.2-.48-1.9-.909-3.6-1.3-5.1-1.3-4.4-5.8-10-9.9-13.3-.963-.771-1.6-1.9-1.7-3.1-1.1-10.3-4.3-14.9-6.4-17.8-.591-.816-.811-1.8-.67-2.8 2.2-15.4-.386-27.7-12.7-33-1.5-.64-2.9-1.2-4.2-1.8-17.4-7.4-21.6-9.2-21.3-16.2.103-2 1.1-4.6 2-6.7.45-1.1.845-2.1 1-2.8.227-.907.9-1.6 1.6-2.4 1.3-1.4 2.9-3 2.9-6.6 0-2.7-.49-3.6-.937-4.5-.51-.977-.963-1.8-.563-5.998-8-8.5-15.5-17.4-15.5h-.054c-9.03-18.4 7.5-17.4 15.5.4 3.2-.053 4.1-.563 5-.447.9-.937 1.8-.937 4.5 0 3.6 1.6 5.3 2.9 6.6.742.8 1.4 1.5 1.6 2.4.173.7.569 1.7 1 2.8.845 2.1 1.9 4.7 2 6.7.367 7-3.8 8.8-21.3 16.2-1.3.57-2.7 1.2-4.2 1.8z" clip-rule="evenodd"></path><path fill="#b2b4e0" d="M41.3 95.5l-.247.247-.035zM54.1 62.5l.99.2-.099-.23zM40.7 98.3l-.203-.146.2.146zm-6.4 17.8l.249-.249-.026zm-1.7 3.1l.156.2-.156-.195zM22.6 132.5l.24.1-.24-.072zm-1.3 5.1l.242.1-.242-.06zm-5 16.2l-.23-.99.2.099zm-.285.5l.213.1-.213-.13zM12.1 162l.108.2.088-.42-.09-.232-.093zm-11 9.5l-.24.1.24-.069zm4.1-.228l.148.2-.148-.202zM6.1 171l-.237-.79.2.079zm-1.6 3.9l-.225-.107.2.107zM2.6 180.5l-.247-.35.2.035zm7.9 6l.009-.25-.9.2zm9.4-6.5l.233.1-.233-.09zM22.1 167.5l-.208-.139-.59.1.23.1.244-.054zm.986-1.9l.226.1-.226-.108zM35.1 149.5l-.172-.181.2.181zm1.6-1.5l.169.2-.169-.184zM48.6 124l.25-.007v-.017l-.003-.017-.247zm2.5-4.3l.184.2-.184-.169zm4-5.3l-.226-.108.2.108zm2.6-.193l.221-.117-.22.1zM64.1 124.5l-.2.1.2-.15zm-.5 11.5l.24.1-.24-.069zm-.486 1.6l-.238-.76.2.076zM62.1 152l.243-.058-.243.1zm-3.3 28.2l-.24-.73.2.073zm-2.4 62l.243-.062-.242.1zM58.6 253.5l.249-.026-.249zm-1.7 12.8l-.244-.52.2.052zM55.1 314l-.246.245-.048zm2.4 10.1l.242-.063-.242.1zM61.1 357.5l-.215-.127.2.127zm-12.4 11.5l.137.2-.137-.21zm-6.1 4.5l.177.2-.177-.177zm25 2l-.082-.236.1.236zm5.9-1.1l.006-.25-.5.2zm2.6-.437l.102.2-.102-.228zm1.5-11.9l.25-.021-.25zm.565-43.9l-.237-.81.2.081zm.75-37.3l.243-.056-.244.1zm-.838-6.4l-.232-.93.2.093zm.16-.398l.232.1-.232-.093zM85.1 230l.25-.25-.008zm1.2-9l-.247-.37.2.037zM89.1 192.5l.25-.011-.25zm1.4-.12l-.64.2.064-.241zm.51.1h.25v-.225l-.223-.024-.27.2zm0 .003h-.25v.25h.25v-.25zm.027-.001l.016-.249-.016-.001-.16.16.2zm.27v.25h.25v-.25h-.25zm0-.003l-.027-.249-.223v.225h.25zm.51-.117l.64.2-.064-.241zm1.4.12l-.25-.11.2.011zm2.8 28.5l.247-.037-.247zM97 230l-.25.25-.008zm6.8 44.1l-.232.1.232-.093zm.16.4l.232-.093-.232.1zm-.837 6.4l-.244-.56.2.056zm.75 37.3l.236-.081-.236.1zm.564 43.9l-.249-.21.2.021zM106 374l-.102.2.102-.228zm2.6.437l-.005-.25.25zm5.9 1.1l.082-.236-.82.2zm18.9-6.5l-.137.2.137-.21zm-12.4-11.5l-.215.1.215-.127zm3.6-33.4l-.242-.63.2.063zM127 314l.245-.245-.048zm-1.8-47.7l.245-.052-.245.1zm-1.7-12.8l.249-.249-.026zm2.2-11.3l-.242-.62.2.062zm-2.4-62l.239-.073-.239.1zM120 152l-.243-.58.2.058zm-1-14.4l.238-.076-.238.1zm-.986-13.1l-.2-.15.2.15zm6.4-10.3l.221.1-.221-.117zm2.6.193l.226-.108-.226.1zm4 5.3l-.184.2.184-.169zm2.5 4.3l-.247-.041-.2-.1.25zm11.9 24l.169-.185-.169.2zm1.6 1.5l.172-.181-.172.2zm12 16.1l.226-.108-.226.1zm.986 1.9l.244.1.023-.104-.059-.089-.208.1zm2.1 12.6l.233-.091-.233.1zm9.4 6.5l-.009-.25.25zm7.9-6l-.247.247-.035zm-1.9-5.6l.226-.107-.226.1zM176 171l.237-.079-.237.1zm.895.3l.148-.201-.148.2zm4.1.228l-.24-.69.2.069zm-11-9.5l-.232.1.36.1.88.108-.225zm-3.8-7.7l-.213.1.213-.13zm-.285-.545l.229-.099-.229.1zm-5-16.2l-.242.1.242-.06zm-1.3-5.1l-.239.1.239-.072zm-9.9-13.3l-.157.2.157-.195zm-1.7-3.1l-.248.248-.026zm-6.4-17.8l.203-.147-.203.1zm-.67-2.8l.247-.247-.035zM128 62.5l-.98.2.098-.23zm-4.2-1.8l-.98.2.098-.23zM102.5 44.5l.25-.25-.013zm2-6.7l-.232-.93.2.093zM105.5 35l.243.1-.243-.06zm1.6-2.4l-.18-.173.2.172zm1.9-11.1l.222-.116-.222.1zm-.563-5l.248-.248-.031zM91.1 1h-.25v.25h.25V1zm0 0h.25V.75h-.25V1zm-.027 0v.25V1zm-.027 0V.75h-.25V1h.25zm0 0v.25h.25V1h-.25zM73.6 16.5l-.248.248-.031zm-.563 5l-.222-.116.2.116zm1.9 11.1l.18-.172-.18.2zM76.6 35l-.242.1.242-.06zm1 2.8l.233-.093-.233.1zM79.6 44.5l-.25.25-.013zM58.3 60.7l.98.2-.098-.23zM41.6 95.4c-1.1-7.7-.988-14.5.907-20.1 1.9-5.6 5.6-9.9 11.7-12.5l-.197-.459c-6.2 2.7-10 7.1-12 12.8-1.9 5.7-2 12.7-.928 20.4l.495-.07zm-.716 3c.632-.873.9-2.716-3l-.495.1c.133.9-.076 1.9-.626 2.6l.405.3zm-6.4 17.6c1.1-10.3 4.3-14.8 6.4-17.6l-.405-.293c-2.1 2.9-5.4 7.5-6.5 17.9l.498.1zm-1.8 3.3c1-.809 1.7-2 1.8-3.3l-.498-.052c-.122 1.2-.74 2.2-1.7 2.9l.313.4zm-9.8 13.2c.652-2.2 2.1-4.7 3.9-7 1.8-2.4 3.9-4.6 6-6.2l-.313-.391c-2.1 1.7-4.2 3.9-6.1 6.3-1.8 2.4-3.3 4.9-4 7.2l.479.1zm-1.3 5c.481-1.9.909-3.6 1.3-5l-.48-.144c-.424 1.4-.855 3.1-1.3 5.1l.485.1zm-5.1 16.2c2.4-5.6 3.9-11.5 5.1-16.2l-.485-.121c-1.2 4.7-2.6 10.5-5 16.1l.459.2zm-.302.6a4.7 4.7 0 0.3-.576l-.46-.198a4.1 4.1 0 01-.269.5l.427.3zm-3.8 7.7c.72-1.8 2.6-5.8 3.8-7.7l-.428-.26c-1.2 2-3.1 6-3.9 7.8l.464.2zm-11 9.3c-.157-.549.1-1.3.765-2.1.65-.837 1.6-1.7 2.8-2.6 2.3-1.8 5.2-3.5 7.3-4.5l-.216-.45c-2.1 1-5.1 2.7-7.4 4.5-1.2.9-2.2 1.8-2.9 2.7-.677.9-1.1 1.8-.851 2.6l.48-.138zm3.7-.36c-.644.5-1.5 1.1-2.2 1.3-.362.1-.663.1-.9-.016-.234-.117-.461-.377-.614-.914l-.481.1c.176.6.469 1.87 1.2.395.2.841.2 1.3.49.8-.244 1.7-.91 2.4-1.4l-.297-.403zm1.3.008a.970 0 0.1-.21.4.374 0 00-.056-.251.3.31 0 00-.277-.133.5.547 0 00-.192.1c-.106-.23.1-.358.2-.132.1-.284.2-.447.3l.297.4c.164-.122.3-.228.4-.313a1.9 1.9 0 1.3-.168c.03-.14-.1-.009a.19.2 0 01-.158-.083c-.038-.056-.027-.1-.03-.08a.517.5 0 01-.25.1l.474.2zM4.7 175c.53-1.1 1.1-2.3 1.6-3.9l-.474-.158c-.523 1.6-1.1 2.8-1.6 3.9l.451.2zm-1.9 5.5c.339-2.4 1-3.8 1.9-5.5l-.452-.215c-.81 1.7-1.5 3.2-1.9 5.7l.495.1zm7.7 5.7c-3.2-.112-5.3-.922-6.4-2-1.1-1.1-1.5-2.4-1.3-3.7l-.495-.07c-.206 1.4.154 3 1.4 4.2 1.3 1.2 3.4 2 6.7 2.1l.017-.5zm9.2-6.3c-1.5 3.8-5.1 6.4-9.2 6.3l-.17.5c4.3.147 8.1-2.6 9.7-6.6l-.466-.181zm2.1-12.4c.243 1.1.415 5.9-2.1 12.4l.466.2c2.6-6.6 2.4-11.5 2.1-12.7l-.488.1zm1-2c-.394.8-.688 1.4-.969 1.9l.416.3c.305-.458.6-1.1 1-1.9l-.451-.216zm12.1-16.2c-7.9 7.5-10.6 13.1-12.1 16.2l.452.2c1.4-3 4.1-8.6 12-16l-.344-.362zm1.6-1.5c-.558.5-1.1 1-1.6 1.5l.344.4c.494-.469 1-.956 1.6-1.5l-.338-.369zm11.8-23.8c.346 12.7-6.7 19.2-11.8 23.8l.338.4c5.1-4.7 12.3-11.3 12-24.2l-.5zm2.6-4.4c-.754.8-1.4 1.6-1.9 2.3-.478.7-.766 1.4-.641 2.2l.493-.082c-.094-.561.1-1.1.564-1.8.451-.676 1.1-1.4 1.9-2.2l-.367-.339zm3.9-5.3c-1 2.2-2.6 3.8-3.9 5.3l.367.3c1.3-1.4 2.9-3.2 4-5.4l-.452-.216zm3-.202c-.302-.571-.965-.764-1.6-.713-.59.1-1.2.352-1.5.915l.452.2c.166-.35.6-.592 1.1-.633.5-.41.9.126 1.1.449l.442-.234zm6.4 10.3c-2.2-2.9-4.7-7-6.4-10.3l-.442.2c1.8 3.3 4.2 7.4 6.5 10.3l.4-.3zm-.46 11.7c.504-1.8 1-4.2 1.2-6.4.094-1.1.111-2.2.007-3.1-.103-.914-.33-1.7-.744-2.3l-.4.3c.335.4.547 1.1.647 2.1.9.085 1.9-.008 3-.186 2.2-.683 4.5-1.2 6.3l.481.1zm-.488 1.6c.177-.558.3-1.1.488-1.6l-.48-.138a56.9 56.9 0 01-.484 1.6l.476.2zm-1 14.3c-1.5-6.4-.065-10.9 1-14.3l-.477-.152c-1.1 3.4-2.6 8-1 14.6l.487-.116zm-3.3 28.4c3-9.9 5.6-18.6 3.3-28.4l-.486.1c2.3 9.6-.29 18.2-3.3 28.1l.48.1zM53.3 212c0-12.8 3-22.8 5.7-31.7l-.48-.145c-2.7 9-5.7 19-5.7 31.8h.5zm3.3 30.2c-1.6-6.1-3.3-12.7-3.3-30.2h-.5c0 17.5 1.7 24.1 3.3 30.3l.484-.125zm2.2 11.3c-.5-4.7-1.3-8-2.2-11.3l-.483.1c.865 3.3 1.7 6.5 2.2 11.2l.498-.052zm-1.8 12.9c.581-2.7 1.1-5.1 1.4-7.3.334-2.1.485-4.317-5.6l-.498.1c.162 1.5.019 3.4-.313 5.5-.332 2.1-.85 4.5-1.4 7.2l.488.1zm-1.8 47.6c-4-20.8-.621-36.6 1.8-47.6l-.488-.105c-2.4 11.1-5.8 26.9-1.8 47.8l.49-.096zm2.4 10.1c-1-3.9-1.9-7.4-2.4-10.1l-.491.1c.524 2.7 1.4 6.2 2.4 10.1l.484-.125zm3.5 33.6c.905-1.5 1.3-3.7 1.4-6.2.07-2.5-.199-5.4-.672-8.4-.947-6.1-2.7-13-4.3-19l-.484.1c1.5 6 3.3 12.8 4.2 18.9.47 3.735 5.9.666 8.4-.07 2.5-.474 4.5-1.3 5.9l.43.3zm-12.5 11.5c4.3-2.8 9.2-6 12.5-11.5l-.431-.254c-3.2 5.4-8 8.6-12.3 11.4l.273.4zm-6.1 4.5c1.6-1.6 3.7-3 6.1-4.5l-.272-.419c-2.3 1.5-4.5 2.9-6.2 4.6l.353.4zm24.7 1.6c-6.5 2.2-13.5 2.6-18.6 2-2.5-.311-4.5-.869-5.6-1.5-.563-.34-.865-.684-.954-1-.082-.292-.633.4-1l-.354-.354c-.476.5-.675-.527 1.5.14.5.575.9 1.2 1.3 1.2.731 3.3 1.3 5.8 1.6 5.1.629 12.3.252 18.8-2l-.164-.472zm6-1.1c-1.2-.023-2.7-.05-6 1.1l.164.5c3.2-1.1 4.7-1.1 5.8-1l.01-.5zm2.5-.415c-1 .443-1.6.432-2.5.415l-.1.5c.879 1.6.032 2.7-.459l-.203-.456zm1.4-11.7c.356 4.1.585 6.8.424 8.6-.8.9-.254 1.5-.54 2-.282.5-.684.8-1.3 1.1l.204.5c.651-.289 1.1-.686 1.5-1.3.34-.57.5-1.3.61-2.2.165-1.8-.071-4.6-.424-8.7l-.499zM75.8 327c0 17.3.933 28.2 1.5 35.1l.499-.043c-.592-6.9-1.5-17.8-1.5-35h-.5zm2.1-8.9c-1.1 3.3-2.1 6.1-2.1 8.9h.5c0-2.7.947-5.4 2.1-8.7l-.473-.162zm3.4-17.1c0 7.2-1.8 12.6-3.4 17.1l.473.2c1.6-4.5 3.4-10 3.4-17.3h-.5zm-2.7-20.1c1.1 4.7 2.7 11.5 2.7 20.1h.5c0-8.6-1.6-15.5-2.7-20.2l-.486.1zm-.826-6.5c-.118.3-.164.7-.163 1.1.2.4.52.9.136 1.4.17 1.1.483 2.4.853 4l.487-.113c-.371-1.6-.68-2.9-.846-4a9.3 9.3 0 01-.13-1.4c-.001-.381-.672.1-.884l-.464-.186zm.16-.399l-.16.4.464.2.16-.398-.463-.187zm6.8-44c-.967 29.5-5.1 39.8-6.8 44l.463.2c1.7-4.3 5.9-14.6 6.9-44.2l-.5-.016zM86 221c-.632 4.2-1.1 7.5-1.2 9l.5c.048-1.5.545-4.7 1.2-8.9l-.494-.075zm2.8-28.5c.335 7.7-1.5 19.9-2.8 28.5l.494.1c1.3-8.6 3.2-20.8 2.8-28.6l-.5zm1.8-.373c-.301-.08-.695-.186-1-.2-.155-.007-.335-.483.1a.49.5 0 00-.197.2.555.6 0 00-.58.3l.5-.022c-.001-.29-.36-.031-.3-.7-.1a.465.5 0 1.2-.024c.251.587.1.906.2l.128-.483zm.473.1a4 4 0 01-.473-.11l-.128.5c.198.1.404.1.547.1l.054-.497zm-.277.2v.003h.5v-.003h-.5zm.25.3l.043-.001-.032-.499h-.011v.5zm.054-.5h-.011l-.32.5.43v-.5zm-.25.2v.003h.5v-.003h-.5zm.277.2c.143-.15.3-.71.5-.124l-.128-.483c-.217.1-.378.1-.473.1l.54.5zm.547-.124c.32-.85.7-.172.9-.184a.465.5 0 1.2.024c.5.2-.002-.003-.002-.5.2.031l.5a.554.6 0 00-.058-.284.5.489 0 00-.197-.201c-.148-.083-.328-.095-.483-.088-.317-.71.1-1.2l.128.5zm1.1-.132c-.337 7.8 1.5 20 2.8 28.6l.494-.075c-1.3-8.6-3.1-20.8-2.8-28.5l-.5-.022zm2.8 28.6c.635 4.2 1.1 7.5 1.2 8.9l.5-.016c-.05-1.5-.554-4.8-1.2-9l-.494.1zm1.2 8.9c.97 29.6 5.1 39.9 6.9 44.2l.464-.187c-1.7-4.2-5.9-14.5-6.8-44l-.5zm6.9 44.2l.16.4.464-.186-.16-.399-.464.2zm.16.4c.85.2.128.5.127.9a9.2 9.2 0 01-.13 1.4c-.166 1.1-.475 2.4-.846 4l.487.1c.37-1.6.683-3.853-4a9.9 9.9 0 0.1-1.4c.002-.413-.044-.775-.163-1.1l-.464.2zm-.849 6.2c-1.1 4.7-2.7 11.5-2.7 20.2h.5c0-8.6 1.6-15.4 2.7-20.1l-.487-.113zM100.3 301c0 7.3 1.9 12.7 3.4 17.3l.473-.162c-1.6-4.5-3.4-9.9-3.4-17.1h-.5zm3.4 17.3c1.1 3.3 2.1 6 2.1 8.7h.5c0-2.8-.983-5.6-2.1-8.9l-.473.2zm2.1 8.7c0 17.3-.931 28.1-1.5 35l.498c.592-6.9 1.5-17.8 1.5-35.1h-.5zm-1.5 35c-.354 4.1-.589 6.9-.424 8.7.83.9.269 1.6.609 2.2.344.6.835 1.5 1.3l.204-.456c-.575-.256-.978-.59-1.3-1.1-.286-.478-.46-1.1-.54-2-.16-1.8.069-4.5.424-8.6l-.498-.043zm1.7 12.2c1.1.491 1.8.476 2.7.459l-.01-.5c-.861-1.5.028-2.5-.415l-.204.5zm2.7.459c1.1-.022 2.6-.054 5.8 1l.164-.472c-3.3-1.1-4.8-1.1-6-1.1l.1.5zm5.8 1c6.5 2.3 13.7 2.6 18.8 2 2.5-.314 4.6-.881 5.8-1.6.601-.363 1-.793 1.2-1.3.146-.524-.052-1-.528-1.5l-.354.4c.399.4.482.7.4 1-.88.3-.391.7-.954 1-1.1.675-3.1 1.2-5.6 1.5-5.621-12.1.248-18.6-2l-.164.5zm25.3-2.4c-1.6-1.6-3.8-3-6.2-4.6l-.273.4c2.4 1.5 4.5 2.9 6.1 4.5l.354-.354zm-6.2-4.6c-4.3-2.8-9.1-5.9-12.3-11.4l-.431.3c3.3 5.5 8.2 8.8 12.5 11.5l.273-.419zm-12.3-11.4c-.843-1.4-1.2-3.5-1.3-5.9-.069-2.5.195-5.3.667-8.4.942-6.1 2.7-12.9 4.2-18.9l-.484-.125c-1.5 6-3.3 12.9-4.3 19-.474 3.1-.743 5.9-.673 8.4.071 2.5.48 4.6 1.4 6.2l.431-.254zm3.6-33.2c1-3.9 1.9-7.4 2.4-10.1l-.49-.096c-.521 2.7-1.4 6.2-2.4 10.1l.484.1zm2.4-10.1c4-20.9.623-36.7-1.8-47.8l-.489.1c2.4 11 5.8 26.8 1.8 47.6l.49.1zm-1.8-47.8c-.582-2.7-1.1-5.1-1.4-7.2-.332-2.1-.474-3.9-.313-5.5l-.498-.052c-.167 1.6-.017 3.5.317 5.6.335 2.1.856 4.6 1.4 7.3l.489-.105zm-1.7-12.7c.495-4.7 1.3-7.9 2.2-11.2l-.484-.125c-.866 3.3-1.7 6.5-2.2 11.3l.498.1zm2.2-11.2c1.6-6.2 3.3-12.8 3.3-30.3h-.5c0 17.5-1.7 24.1-3.3 30.2l.484.1zM129.3 212c0-12.9-3-22.9-5.7-31.8l-.478.1c2.7 8.9 5.7 18.9 5.7 31.7h.5zm-5.7-31.8c-3-9.9-5.6-18.5-3.3-28.1l-.486-.116c-2.3 9.8.304 18.5 3.3 28.4l.478-.145zm-3.3-28.1c1.5-6.5.061-11.2-1-14.6l-.476.2c1.1 3.4 2.5 7.9 1 14.3l.486.1zm-1-14.6c-.177-.559-.343-1.1-.484-1.6l-.48.1c.142.5.311 1.488 1.6l.476-.152zm-.484-1.6c-.496-1.7-.993-4.1-1.2-6.3-.093-1.1-.108-2.1-.009-3.1-.883.3-1.6.647-2l-.4-.3c-.415.6-.64 1.4-.744 2.3-.104.9-.087 2.007 3.1.19 2.2.693 4.6 1.2 6.4l.48-.138zm-.54-11.3c2.2-3 4.7-7 6.5-10.3l-.442-.234c-1.7 3.3-4.2 7.3-6.4 10.3l.4.3zm6.5-10.3c.171-.323.6-.49 1.1-.449.5.41.9.283 1.1.633l.452-.216c-.269-.563-.898-.864-1.5-.915-.588-.051-1.3.142-1.6.713l.442.2zm2.1.184c1.1 2.2 2.7 4 4 5.4l.368-.339c-1.3-1.4-2.9-3.1-3.9-5.3l-.452.2zm4 5.4c.762.8 1.4 1.5 1.9 2.2.451.7.658 1.3.564 1.8l.494.1c.124-.747-.164-1.5-.642-2.2-.478-.716-1.2-1.5-1.9-2.3l-.368.3zm2.4 4.1c-.352 12.9 6.9 19.6 12 24.2l.338-.369c-5.1-4.7-12.2-11.1-11.8-23.8l-.5-.014zm12 24.2c.56.5 1.1.999 1.6 1.5l.344-.362c-.498-.473-1-.964-1.6-1.5l-.338.4zm1.6 1.5c7.9 7.5 10.5 13 12 16l.451-.216c-1.5-3.1-4.2-8.7-12.1-16.2l-.344.4zm12 16c.386.8.698 1.5 1 1.9l.416-.278c-.281-.421-.575-1-.968-1.9l-.451.2zm.967 1.7c-.27 1.2-.419 6.1 2.1 12.7l.466-.181c-2.5-6.5-2.4-11.3-2.1-12.4l-.488-.108zm2.1 12.7c1.5 4 5.4 6.8 9.7 6.6l-.018-.5c-4.1.139-7.7-2.5-9.2-6.3l-.466.2zm9.7 6.6c3.3-.114 5.5-.943 6.7-2.1 1.3-1.2 1.6-2.7 1.4-4.2l-.494.1c.186 1.3-.138 2.7-1.3 3.7-1.2 1.1-3.2 1.9-6.4 2l.18.5zm8.2-6.3c-.349-2.4-1.1-4-1.9-5.7l-.451.2c.807 1.7 1.5 3.2 1.8 5.5l.494-.07zm-1.9-5.7c-.531-1.1-1.1-2.3-1.6-3.9l-.474.2c.534 1.6 1.1 2.8 1.6 3.9l.451-.215zm-1.6-3.9a.52.5 0 01-.025-.1c-.002-.2.024-.3.1a.19.2 0 01-.157.1c-.019-.001-.019-.5.9.1.25.1.8.3.168.1.85.3.191.4.313l.297-.403c-.163-.12-.315-.232-.447-.322a2.3 2.3 0 00-.357-.214.6.55 0 00-.193-.5.3.31 0 00-.276.1.37.4 0 00-.56.3.948.9 0 0.21l.474-.158zm.509.6c.622.5 1.5 1.1 2.4 1.4.424.1.87.2 1.3-.49.4-.202.7-.606.9-1.2l-.48-.138c-.154.5-.381.8-.614.9-.238.1-.539.1-.901-.735-.214-1.6-.816-2.2-1.3l-.297.4zm4.5.095c.228-.797-.174-1.7-.851-2.6-.689-.885-1.7-1.8-2.9-2.7-2.3-1.8-5.3-3.5-7.4-4.5l-.216.4c2.1.994 5 2.7 7.3 4.5 1.2.888 2.1 1.8 2.8 2.6.662.9.922 1.6.766 2.1l.48.1zm-11-9.7c-.728-1.8-2.7-5.8-3.9-7.8l-.427.3c1.2 1.9 3.1 5.9 3.8 7.7l.464-.186zm-3.9-7.8a4.1 4.1 0 01-.27-.514l-.459.2c.87.2.19.4.302.6l.427-.26zm-.27-.514c-2.4-5.6-3.9-11.4-5-16.1l-.485.1c1.2 4.7 2.6 10.6 5.1 16.2l.459-.198zm-5-16.1c-.48-1.9-.91-3.7-1.3-5.1l-.478.1c.421 1.4.848 3.1 1.3 5l.485-.121zm-1.3-5.1c-.676-2.3-2.1-4.8-4-7.2-1.8-2.4-4-4.6-6.1-6.3l-.313.4c2 1.6 4.2 3.9 6 6.2 1.8 2.4 3.2 4.8 3.9 7l.478-.144zm-10-13.5c-.916-.732-1.5-1.8-1.7-2.9l-.497.1c.137 1.3.83 2.5 1.8 3.3l.313-.391zm-1.7-2.9c-1.1-10.4-4.4-15-6.5-17.9l-.405.3c2.1 2.9 5.3 7.4 6.4 17.6l.497-.052zm-6.5-17.9c-.55-.76-.759-1.7-.626-2.6l-.495-.07c-.149 1.1.084 2.1.716 3l.405-.293zm-.626-2.6c1.1-7.7 1-14.7-.928-20.4-1.9-5.7-5.7-10.2-12-12.8l-.197.5c6.1 2.6 9.8 7 11.7 12.5 1.9 5.6 2 12.5.907 20.1l.495.1zM128.1 62.3c-1.5-.64-2.9-1.2-4.2-1.8l-.196.5c1.3.57 2.7 1.2 4.2 1.8l.197-.46zm-4.2-1.8c-8.7-3.7-14.1-6-17.3-8.2-1.6-1.1-2.6-2.2-3.2-3.4-.589-1.2-.782-2.6-.691-4.3l-.5-.027c-.093 1.8.102 3.2.741 4.5.639 1.3 1.7 2.5 3.3 3.6 3.2 2.3 8.6 4.6 17.3 8.3l.196-.46zm-21.1-15.9c.049-.946.3-2.1.701-3.2.374-1.2.841-2.3 1.3-3.4l-.464-.185c-.422 1.1-.895 2.2-1.3 3.4-.379 1.2-.671 2.3-.725 3.3l.5zm2-6.6c.447-1.1.851-2.1 1-2.8l-.486-.122c-.167.7-.555 1.6-1 2.8l.464.2zm1-2.8c.207-.831.8-1.5 1.6-2.3l-.361-.346c-.731.8-1.4 1.5-1.7 2.5l.486.1zm1.6-2.3c.65-.68 1.4-1.5 2-2.5.576-1.1.979-2.4.979-4.3h-.5c0 1.8-.384 3.1-.92 4.1-.538 1-1.2 1.7-1.9 2.4l.361.3zM110.3 26c0-1.3-.124-2.3-.309-3-.186-.702-.432-1.2-.656-1.6l-.443.2c.222.4.445.9.615 1.5.172.6.293 1.5.293 2.8h.5zm-.965-4.6c-.254-.485-.478-.917-.598-1.6-.121-.705-.137-1.7.061-3.3l-.496-.062c-.201 1.6-.191 2.7-.058 3.4.134.8.391 1.3.648 1.8l.443-.232zm-.537-4.9c.513-4.1-1.7-8-5.1-11C100.3 2.7 95.6.765 91.1.75l-.2.5c4.4.015 9 1.9 12.3 4.7 3.3 2.8 5.4 6.6 4.9 10.5l.496.1zM90.8 1h.5-.5zm.224.2h.026v-.5h-.027v.5zm0-.5h-.028v.5h.027v-.5zm-.278.2h.5-.5zM73.8 16.5c-.485-3.9 1.6-7.7 4.9-10.5C82 3.1 86.6 1.3 91 1.2l-.002-.5c-4.6.015-9.2 1.9-12.6 4.8-3.4 2.9-5.6 6.8-5.1 11l.496-.062zm-.59 5.2c.257-.491.5-.982.6-1.8.133-.773.1-1.8-.058-3.4l-.496.1c.198 1.6.183 2.6.061 3.3-.12.7-.344 1.1-.598 1.6l.444.2zM72.3 26c0-1.3.121-2.2.293-2.8.17-.646.4-1.1.616-1.5l-.444-.23c-.224.4-.47.9-.656 1.6-.185.7-.309 1.6-.309 3h.5zm2.8 6.5c-.653-.682-1.4-1.4-1.9-2.4-.536-.996-.92-2.3-.92-4.1h-.5c0 1.9.403 3.2.98 4.3.574 1.1 1.3 1.8 2 2.5l.361-.345zm1.7 2.5c-.246-.983-.954-1.7-1.7-2.5l-.36.3c.752.8 1.4 1.4 1.6 2.3l.486-.122zm1 2.8c-.452-1.1-.84-2.1-1-2.8l-.485.1c.177.7.581 1.7 1 2.8l.465-.185zm2 6.8c-.053-1-.346-2.2-.725-3.3-.38-1.2-.853-2.4-1.3-3.4l-.464.2c.423 1.1.89 2.2 1.3 3.4.374 1.2.65 2.3.7 3.2l.5-.026zM58.4 60.9c8.7-3.7 14.1-6 17.3-8.3 1.6-1.1 2.7-2.3 3.3-3.6.64-1.3.835-2.8.742-4.5l-.5c.09 1.7-.101 3.1-.69 4.3-.59 1.2-1.6 2.3-3.2 3.4-3.2 2.2-8.5 4.5-17.3 8.2l.196.5zm-4.2 1.8c1.5-.64 2.9-1.2 4.2-1.8l-.196-.46c-1.3.57-2.7 1.2-4.2 1.8l.197.5z"></path></g></g><g class=".Muscles/Male/Front"><g class="Abdominals"><g class="Lower Abs"><path fill="#7F8097" d="M90.1 139.5v-16.2c0-.182-.098-.351-.274-.4-1.5-.435-6.7-.096-8.7 1.1-5.5 3.3-3.2 15.7 2 16 .683 4.4.006 6.5.001a.5.5 0 0.5-.501zM90.1 181.5v-39c0-.276-.223-.5-.5-.505-2.8-.047-8.5-.373-9 1.5-4 15.9 4.8 36.8 9 38.4.258.1.483-.129.5-.405z"></path></g><g class="Lower Abs_2"><path fill="#7F8097" d="M92.1 139.5v-16.2c0-.182.1-.351.3-.4 1.5-.435 6.7-.096 8.7 1.1 5.5 3.3 3.2 15.7-2 16-.683-4.4.006-6.5.001a.5.5 0 01-.499-.501zM92.1 181.5v-39c0-.276.2-.5.5-.505 2.8-.047 8.5-.373 9 1.5 4 15.9-4.8 36.8-9 38.4-.259.1-.484-.129-.484-.405z"></path></g><g class="Upper Abs"><path fill="#7F8097" d="M74.1 113c5.3-3.3 10.2-6.8 15.5-7a.516.5 0 0.5-.51v-6.8c0-.098-.025-.197-.1-.262-1.5-1.3-12.6.15-18.9 1.6-6.8 1.6-1 15.5 3 13zM90.1 120.4v-11.9a.484.5 0 00-.54-.487c-6.4.813-14.6 6.5-14.5 7.9.11 1.5 1.9 7.5 4 6.5 2.7-1.4 7.7-1.9 10.4-1.6a.53.5 0 0.6-.516z"></path></g><g class="Upper Abs_2"><path fill="#7F8097" d="M108.1 113c-5.3-3.3-10.2-6.8-15.5-7a.516.5 0 01-.5-.51v-6.8c0-.98-.197.1-.262 1.5-1.3 12.6.15 18.9 1.6 6.8 1.6 1 15.5-3 13zM92.1 120.4v-11.9c0-.293.2-.524.5-.487 6.4.813 14.6 6.5 14.5 7.9-.11 1.5-1.9 7.5-4 6.5-2.7-1.4-7.7-1.9-10.4-1.6a.53.5 0 01-.593-.516z"></path></g></g><g class="Obliques - Front"><path fill="#7F8097" d="M64.3 140.7c-1.2 3-1.2 7-.705 9.3 3 8.3 7.2 12.6 11.5 14.7a.455.5 0 0.7-.329c.689-4.2-1.3-12.6-2.1-13.9-2.7-4.4-6-7.3-8.5-10-.242-.251-.659-.189-.79.1z" class="Oblique 3"></path><path fill="#7F8097" d="M117.9 140.7c1.2 3 1.2 7.705 9.3-3 8.3-7.2 12.6-11.5 14.7a.455.5 0 01-.657-.329c-.688-4.2 1.3-12.6 2.1-13.9 2.7-4.4 6-7.3 8.5-10.241-.251.7-.189.8.134z" class="Oblique 4"></path><path fill="#7F8097" d="M74.7 145.8c.296-1.7.25-5.6.315-7.3.104-2.7-4.4-5.4-7.8-7.6a.529.5 0 00-.793.3c-.522 2.4-1.7 5.4-.355 6.7 3 3.1 5.1 5.1 7.9 8.24.2.619.2.677-.171z" class="Oblique 2"></path><path fill="#7F8097" d="M107.5 145.8c-.296-1.7-.25-5.6-.316-7.3-.104-2.7 4.4-5.4 7.8-7.6a.528.5 0 1.8.339c.523 2.4 1.7 5.4.355 6.7-3 3.1-5.1 5.1-7.9 8-.24.2-.618.2-.676-.171z" class="Oblique 5"></path><path fill="#7F8097" d="M75.6 132.6c.088-6.6-1.5-15.5-9.1-17.4-.392-.099-.71.3-.568.7 1.3 3.4 1.9 9 1.6 11.6.022 1.2 4.5 2.9 7.1 5.4.34.3.98.1.987-.353z" class="Oblique 1"></path><path fill="#7F8097" d="M106.5 132.6c-.088-6.6 1.5-15.5 9.1-17.4.392-.99.7.308.6.686-1.3 3.4-1.9 9-1.6 11.6-.022 1.2-4.5 2.9-7.1 5.4-.339.3-.98.1-.986-.353z" class="Oblique 6"></path></g><g class="Biceps"><path fill="#7F8097" d="M45 96.5c-6.7 3.3-13.7 30.1-4 28.5 2.8-.413 13.5-10.5 13-21-.5-3 3.7-10.9 1.5-12-4.2-2.2-6 1.3-10.5 4.5a.507.5 0 01-.67z" class="bicep"></path><path fill="#7F8097" d="M137.1 96.5c6.7 3.3 13.7 30.1 4 28.5-2.8-.413-13.5-10.5-13-21 .5-3-3.7-10.9-1.5-12 4.2-2.2 6 1.3 10.5 4.5a.59.6 0 0.1.04z" class="bicep_2"></path></g><g class="Shoulder - Front"><path fill="#7F8097" d="M54.1 82.5c4.8-9.6 10.4-14.8 13.8-16.5.413-.207.4-.863-1-16.6-7.1-28.9 8.2-24.9 28.9a.48.5 0 0.7.325c3.5-2.2 8.1-6.9 10.4-11.6z" class="Shoulder"></path><path fill="#7F8097" d="M128.1 82.5c-4.8-9.6-10.4-14.8-13.8-16.5-.413-.207-.439-.863-.015-1 16.6-7.1 28.9 8.2 24.9 28.9a.48.5 0 01-.724.3c-3.5-2.2-8.1-6.9-10.4-11.6z" class="Shoulder_2"></path></g><g class="Back - Front"><path fill="#41BD98" d="M65.2 99.9c-1.6-.569-4-2.5-5.6-4.4-.324-.39-1.1-.167-1.2.333-.42 2.6-1.6 4.6-1.8 7.2a.501.5 0 000 .098c.807 7.7 4.3 13.8 7.2 17.1.294.3.802.1.746-.323-.358-2.8-1.8-4.8-.923-6.3 1.5-2.5 3.2-4.2 2-13.2a.55.5 0 00-.368-.437z" class="oblique"></path><path fill="#41BD98" d="M116.9 99.9c1.6-.569 4-2.5 5.6-4.4.323-.39 1.1-.167 1.2.333.4 2.6 1.6 4.6 1.8 7.2a.459.5 0 01-.1.1c-.807 7.7-4.3 13.8-7.2 17.1-.294.3-.801.1-.746-.323.4-2.8 1.8-4.8.923-6.3-1.5-2.5-3.2-4.2-2-13.2a.551.6 0 1.4-.437z" class="oblique_2"></path></g><g class="Trapezius - Front"><path fill="#7F8097" d="M79.6 52c-3.1 2.7-10.9 6.5-15.8 8.8-.466.2-.373.126 1.1C68.7 62.9 77.4 66 80.1 66c2.9 0 3.6-1 3-2.5-3.5-8.5-2.7-12.2-3.5-11.5z" class="Trap"></path><path fill="#7F8097" d="M102.6 52c3.1 2.7 10.9 6.5 15.8 8.8.465.2.372-.126 1.1-4.8 1.1-13.6 4.2-16.2 4.2-2.9 0-3.6-1-3-2.5 3.5-8.5 2.7-12.2 3.5-11.5z" class="Trap_2"></path></g><g class="Chest"><path fill="#F2305A" d="M90.1 75v20.5c0 .276-.22.5-.497.5-3.3.03-10.2.359-15.5 1.5-7 1.5-11.5-2-13.5-5.5-1.5-2.6-5-3.3-7.2-3.5-.371-.023-.595-.407-.395-.73-1.5 3.1-4.5 4.6-7.3 6.3-12 12.9-14.2 16-14 2.2.142 11.1 2.8 13.5 4 2.4 1.2 3 3.5 3 4.5z" class="Pec"></path><path fill="#F2305A" d="M92.1 75v20.5c0 .276.2.5.5.503 3.3.03 10.2.359 15.5 1.5 7 1.5 11.5-2 13.5-5.5 1.5-2.6 5-3.3 7.2-3.5.371-.23.6-.407.4-.72-.965-1.5-3.1-4.5-4.6-7.3-6.3-12-12.9-14.2-16-14-2.2.142-11.1 2.8-13.5 4-2.4 1.2-3 3.5-3 4.5z" class="Pec_2"></path></g><g class="Forearms - Front"><path fill="#7F8097" d="M23.6 137c0-5.6 5.7-12.7 8.8-14.4a.469.5 0 1.4-.002c2.8 1.4 3.6 2.1 1.7 11.9-2.8 14.3-19.2 25.8-18 23.1a.507.5 0 1.1-.105c2.5-3.1 7-14 7-20.5z" class="forearm"></path><path fill="#7F8097" d="M158.6 137c0-5.6-5.7-12.7-8.8-14.4a.47.5 0 00-.447-.002c-2.8 1.4-3.6 2.1-1.7 11.9 2.8 14.3 19.2 25.8 18 23.1a.492.5 0 00-.064-.105c-2.5-3.1-7-14-7-20.5z" class="forearm_2"></path><path fill="#7F8097" d="M38.3 127.3c2.1.797 5.719 7.3-1.6.339-.346-.136.349-.05 5.4-1.4 11.8-11 20.5-9.3 8.3-12.8 15.7-13.9 17.4a.45.5 0 01-.197.2c-3 1.4-5.3-.25-6.1-1.2-.161-.188-.1-.466.1-.617 19.7-15.2 21.4-23.6 22.1-34.4.025-.365.4-.587.8-.455z" class="forearm_3"></path><path fill="#7F8097" d="M143.9 127.3c-2.1.797-5.719-7.3-1.6-.34-.345-.994-.135-.989.3.049 5.4 1.4 11.8 11 20.5 9.3 8.3 12.8 15.7 13.9 17.4a.454.5 0 0.2.171c3 1.4 5.3-.25 6.1-1.2.162-.188.1-.466-.097-.617-19.7-15.2-21.4-23.6-22.1-34.4-.024-.365-.421-.587-.762-.455z" class="forearm_4"></path></g><g class="Abductors - Front"><path fill="#7F8097" d="M69.7 165.4c-5.5 7.3-8 22.9-11.6 27.4-.241.3-.67.2-.675-.233-.069-5.8 7.1-19.1 7.2-31.3.003-.538.8-.786 1.1-.347 1.3 1.9 2.7 3 3.8 3.7a.52.5 0 1.1.742z" class="adductor"></path><path fill="#7F8097" d="M112.4 165.4c5.5 7.3 8 22.9 11.6 27.4.242.3.671.2.675-.233.1-5.8-7.1-19.1-7.2-31.3-.004-.538-.839-.786-1.2-.347-1.3 1.9-2.7 3-3.8 3.7a.52.5 0 00-.129.7z" class="adductor_2"></path></g><g class="Adductors - Front"><path fill="#41BD98" d="M86.6 190.5c-1.8-2.1-5-7.3-7.1-10.7-.29-.473-1-.181-.955.4 2.8 17.5.553 24.2 1.5 25.8 2.3 3.8 2.5 6.4 3.5 12.8.21.1.112.3.252.3 2.1-.426 4-27.1 2.8-28.5z" class="abductor"></path><path fill="#41BD98" d="M95.6 190.5c1.8-2.1 5-7.3 7.1-10.7.291-.473 1-.182.367-2.8 17.5-.553 24.2-1.5 25.8-2.3 3.8-2.5 6.4-3.5 12.8-.22.1-.112.3-.253.3-2.1-.426-4-27.1-2.8-28.5z" class="abductor_2"></path></g><g class="Quadriceps"><path fill="#7F8097" d="M63.1 248.5c-8.7-4.7-10.9-48.3-3.2-55.294-.259.7-.14.7.376-.615 8.1-2.8 26.8 1.6 37.1 5.4 12.8 2.6 18.4 1 17.5z" class="quad"></path><path fill="#7F8097" d="M119.1 248.5c8.7-4.7 10.9-48.3 3.2-55-.294-.259-.7-.014-.67.4.615 8.1 2.8 26.8-1.6 37.1-5.4 12.8-2.6 18.4-1 17.5z" class="quad_2"></path><path fill="#7F8097" d="M72.4 167.3c7.1 8.8 6.6 67.6-4.1 68.7a.425.4 0 01-.295-.078c-10.2-7.3-5.9-58.8 3.8-68.6.188-.189.5-.187.6.019z" class="quad_3"></path><path fill="#7F8097" d="M109.8 167.3c-7.1 8.8-6.6 67.6 4.1 68.7a.426.4 0 0.3-.078c10.2-7.3 5.9-58.8-3.8-68.6-.188-.189-.463-.187-.631z" class="quad_4"></path><path fill="#7F8097" d="M83.1 230.5c0-3.8-1.7-14.1-3.2-19.5-.144-.534-.788-.421-.798.1-.148 8.3-2.1 20.7-7.5 27.8-5.1 6.8-4 16 3.5 18s8-19.5 8-26.5z" class="quad_5"></path><path fill="#7F8097" d="M99.1 230.5c0-3.8 1.7-14.1 3.2-19.5.144-.534.8-.421.8.132.1 8.3 2.1 20.7 7.5 27.8 5.1 6.8 4 16-3.5 18s-8-19.5-8-26.5z" class="quad_6"></path></g><g class="Calves - Front"><path fill="#7F8097" d="M63.6 289.5c-2.7-3.6-3.8-6.9-5.2-12.9-.105-.477-.73-.539-.88-.073-3.4 10.7-2.9 37.2 3.5 51 3.5 7.5 6.5 23.5 7.5 21s0-52.5-5-59z" class="calf"></path><path fill="#7F8097" d="M118.6 289.5c2.7-3.6 3.8-6.9 5.2-12.9.106-.477.7-.539.9-.073 3.4 10.7 2.9 37.2-3.5 51-3.5 7.5-6.5 23.5-7.5 21s0-52.5 5-59z" class="calf_2"></path><path fill="#7F8097" d="M76.2 317.6c5.4-14.1 2.8-29.4.694-36.5-.126-.422-.592-.438-.68-.006-1.3 6.3-2 33.4-.45 36.6.11.2.347.1.436-.106z" class="calf_3"></path><path fill="#7F8097" d="M105.9 317.6c-5.4-14.1-2.8-29.4-.695-36.5.127-.422.6-.438.7-.006 1.3 6.3 2 33.4.449 36.6-.11.2-.346.1-.435-.106z" class="calf_4"></path></g><g class="Neck"><path fill="#7F8097" d="M91.1 70.5c-7.5-3.5-10.8-23.6-9.5-21.5 1.5 2.5 2 2 3.5 4s.5 11.1 6 16v1.5z" class="Vector"></path><path fill="#7F8097" d="M91.1 70.5c7.5-3.5 10.8-23.6 9.5-21.5-1.5 2.5-2 2-3.5 4s-.5 11.1-6 16v1.5z" class="Vector_2"></path></g></g></g></svg>