<svg xmlns="http://www.w3.org/2000/svg" width="100%" viewBox="0 0 182 379" fill="none"><path fill-rule="evenodd" clip-rule="evenodd" d="M53.1 61.5C40.8 66.8 38.2 79.1 40.4 94.5C40.5 95.4 40.3 96.5 39.7 97.3C37.6 100.2 34.4 104.7 33.3 115C33.2 116.3 32.5 117.4 31.6 118.2C27.4 121.5 23 127.1 21.6 131.5C21.2 132.9 20.8 134.6 20.3 136.6C19.1 141.2 17.7 147.1 15.3 152.7C15.2 152.9 15.1 153.1 15 153.3C13.8 155.2 11.9 159.2 11.1 161C7 163 -0.6 167.8 0.1 170.5C0.8 172.8 3 171.2 4.2 170.3C4.9 169.8 5.3 169.5 5.1 170C4.6 171.6 4 172.8 3.5 173.9C2.7 175.6 2 177.1 1.6 179.5C1.2 182.2 3 185.3 9.6 185.5C13.7 185.7 17.5 183 19 179.1C21.6 172.5 21.4 167.7 21.1 166.5C21.4 166.1 21.7 165.4 22.1 164.6C23.6 161.6 26.3 156 34.1 148.5C34.6 148 35.2 147.5 35.7 147C40.8 142.4 48 135.8 47.6 123C47.4 121.7 48.6 120.4 50.1 118.7C51.5 117.3 53.1 115.6 54.1 113.4C54.5 112.5 56.2 112.3 56.7 113.2C58.5 116.5 60.9 120.6 63.1 123.5C64.6 125.5 63.6 131.5 62.6 135C62.5 135.5 62.3 136 62.2 136.6C61.1 140 59.6 144.6 61.1 151C63.4 160.7 60.8 169.3 57.9 179.2C55.2 188.2 52.1 198.2 52.1 211C52.1 228.5 53.9 235.1 55.4 241.2C56.3 244.6 57.1 247.8 57.6 252.5C58 255.6 57.1 259.9 55.9 265.3C53.5 276.3 50.1 292.2 54.1 313C54.7 315.7 55.6 319.4 56.6 323.4C59.5 335.3 63.4 350.9 61.3 357.7C61.2 358.3 60.9 358.7 60.5 359.1C57.8 361.6 54.8 362.8 52 364C49.3 365.2 46.7 366.3 44.6 368.5C41.1 372 48.6 374 58.1 374.5C59.5 374.6 61.4 375.1 63.4 375.6C68 376.8 73.4 378.1 76.1 375.5C78.2 373.3 78 370.8 77.4 364.6C76.7 357.8 75.5 346.7 76.6 326.8C76.6 326.6 76.6 326.4 76.6 326.2C76.9 324.9 77.3 323.4 77.9 321.7C79.4 316.5 81.6 309.2 81.6 300C81.6 291.4 80 284.8 78.9 280.3C78.1 277.1 77.6 275 78.1 274C81.6 266 83.7 260.7 85.1 230C85.1 228.6 85.5 225.8 85.9 222.2C87 213.8 88.6 201.4 88.2 193.4C88.2 192.8 89.2 192.9 89.8 193C89.9 193 90 193 90.1 193V193C90.1 193 90.1 193 90.1 193C90.1 193 90.1 193 90.1 193V193C90.2 193 90.3 193 90.4 193C91 192.9 92 192.8 92 193.4C91.7 201.4 93.2 213.8 94.3 222.2C94.7 225.8 95.1 228.6 95.2 230C96.5 260.7 98.7 266 102.2 274C102.6 275 102.1 277.1 101.3 280.3C100.3 284.8 98.7 291.4 98.7 300C98.7 309.2 100.8 316.5 102.4 321.7C102.9 323.4 103.3 324.9 103.6 326.2C103.6 326.4 103.7 326.6 103.7 326.8C104.7 346.7 103.6 357.8 102.9 364.6C102.2 370.8 102 373.3 104.2 375.5C106.8 378.1 112.2 376.8 116.8 375.6C118.9 375.1 120.7 374.6 122.2 374.5C131.7 374 139.2 372 135.7 368.5C133.5 366.3 130.9 365.2 128.2 364C125.4 362.8 122.5 361.6 119.7 359.1C119.3 358.7 119 358.3 118.9 357.7C116.8 350.9 120.7 335.3 123.7 323.4C124.7 319.4 125.6 315.7 126.1 313C130.1 292.2 126.7 276.3 124.3 265.3C123.2 259.9 122.3 255.6 122.6 252.5C123.1 247.8 123.9 244.6 124.8 241.2C126.4 235.1 128.1 228.5 128.1 211C128.1 198.2 125.1 188.2 122.4 179.2C119.4 169.3 116.8 160.7 119.1 151C120.6 144.6 119.1 140 118.1 136.6C117.9 136 117.7 135.5 117.6 135C116.6 131.5 115.6 125.5 117.1 123.5C119.3 120.6 121.8 116.5 123.5 113.2C124 112.3 125.7 112.5 126.1 113.4C127.2 115.6 128.7 117.3 130.1 118.7C131.6 120.4 132.8 121.7 132.6 123C132.2 135.8 139.4 142.4 144.5 147C145.1 147.5 145.6 148 146.1 148.5C154 156 156.6 161.6 158.1 164.6C158.5 165.4 158.8 166.1 159.1 166.5C158.8 167.7 158.7 172.5 161.2 179.1C162.7 183 166.5 185.7 170.7 185.5C177.2 185.3 179 182.2 178.6 179.5C178.2 177.1 177.5 175.6 176.7 173.9C176.2 172.8 175.6 171.6 175.1 170C174.9 169.5 175.3 169.8 176 170.3C177.2 171.2 179.4 172.8 180.1 170.5C180.9 167.8 173.3 163 169.1 161C168.4 159.2 166.4 155.2 165.2 153.3C165.1 153.1 165 152.9 165 152.7C162.5 147.1 161.1 141.2 159.9 136.6C159.4 134.6 159 132.9 158.6 131.5C157.3 127.1 152.8 121.5 148.7 118.2C147.7 117.4 147 116.3 146.9 115C145.8 104.7 142.6 100.2 140.5 97.3C139.9 96.5 139.7 95.4 139.8 94.5C142 79.1 139.4 66.8 127.1 61.5C125.6 60.9 124.2 60.3 122.8 59.7C105.4 52.3 101.2 50.5 101.6 43.5C101.7 41.5 102.7 38.9 103.6 36.8C104 35.7 104.4 34.7 104.6 34C104.8 33.1 105.5 32.4 106.2 31.6C107.5 30.3 109.1 28.6 109.1 25C109.1 22.3 108.6 21.4 108.1 20.5C107.6 19.6 107.2 18.7 107.6 15.5C108.6 7.5 99.1 0 90.1 9e-05V0C90.1 0 90.1 7.5e-06 90.1 2.3e-05C90.1 7.5e-06 90.1 0 90.1 0V9e-05C81.1 0 71.6 7.5 72.6 15.5C73 18.7 72.6 19.6 72.1 20.5C71.6 21.4 71.1 22.3 71.1 25C71.1 28.6 72.7 30.3 74 31.6C74.8 32.4 75.4 33.1 75.6 34C75.8 34.7 76.2 35.7 76.7 36.8C77.5 38.9 78.5 41.5 78.6 43.5C79 50.5 74.8 52.3 57.4 59.7C56 60.3 54.6 60.9 53.1 61.5Z" fill="#343542"></path><path d="M44.6 92.9C47.6 89.9 52.1 85.5 60 83.5C65.7 82.1 70.9 78.5 70.5 74.5C69.9 69 63.7 68.4 61 66C52.1 58.1 37.9 75 43.7 92.8C43.9 93.1 44.3 93.2 44.6 92.9Z" fill="#7F8097"></path><path d="M135.4 92.9C132.4 89.9 127.9 85.5 120 83.5C114.3 82.1 109.1 78.5 109.5 74.5C110.1 69 116.3 68.4 119 66C127.9 58.1 142.1 75 136.3 92.8C136.1 93.1 135.7 93.2 135.4 92.9Z" fill="#7F8097"></path><path d="M89 53.5V38.7C89 38.6 89 38.4 88.9 38.4C88.3 37.8 88 37.8 87.5 38.4C87.5 38.5 87.5 38.5 87.5 38.6C86.5 41.7 83.2 48.5 78 52.5C73.1 56.3 64 60.1 59.7 61.7C59.3 61.9 59.3 62.3 59.5 62.5C66.4 69.7 73.6 62.5 73.5 86.5C73.4 105.6 82.6 116.7 88.3 120.5C88.6 120.7 89 120.5 89 120.1V71.5C89 64 84 62.5 84 61C84 59.5 89 58.5 89 53.5Z" fill="#7F8097"></path><path d="M91 53.5V38.7C91 38.6 91 38.4 91.1 38.4C91.7 37.8 92 37.8 92.5 38.4C92.5 38.5 92.5 38.5 92.5 38.6C93.5 41.7 96.8 48.5 102 52.5C106.9 56.3 116 60.1 120.3 61.7C120.7 61.9 120.7 62.3 120.5 62.5C113.6 69.7 106.4 62.5 106.5 86.5C106.6 105.6 97.4 116.7 91.7 120.5C91.4 120.7 91 120.5 91 120.1V71.5C91 64 96 62.5 96 61C96 59.5 91 58.5 91 53.5Z" fill="#7F8097"></path><path d="M71.8 90.8C71.8 86.6 71.8 83.6 71.4 80.3C71.3 79.8 70.7 79.7 70.4 80C64.8 86.1 55.8 85.6 57 87.5C61.6 94.7 71.8 91.7 71.8 90.8V90.8Z" fill="#7F8097"></path><path d="M108.2 90.8C108.2 86.6 108.2 83.6 108.6 80.3C108.7 79.8 109.3 79.7 109.6 80C115.2 86.1 124.2 85.6 123 87.5C118.4 94.7 108.2 91.7 108.2 90.8V90.8Z" fill="#7F8097"></path><path d="M71.3 93.3C65 96.1 59.3 92.8 56.7 90.2C56.4 89.9 55.9 90.1 55.8 90.5C54.2 99.6 58.2 114.8 64 121C66.3 123.5 67.9 130.2 69.4 135.7C69.5 135.9 69.6 136 69.8 136C74.1 136 87.6 127 88.9 123.3C89 123.1 88.9 122.9 88.7 122.8C77.7 116.4 72.7 100.5 72.1 93.8C72 93.4 71.6 93.2 71.3 93.3Z" fill="#7F8097"></path><path d="M108.7 93.3C115 96.1 120.7 92.8 123.3 90.2C123.6 89.9 124.1 90.1 124.2 90.5C125.8 99.6 121.8 114.8 116 121C113.7 123.5 112.1 130.2 110.6 135.7C110.5 135.9 110.4 136 110.2 136C105.9 136 92.4 127 91.1 123.3C91 123.1 91.1 122.9 91.3 122.8C102.3 116.4 107.3 100.5 107.9 93.8C108 93.4 108.4 93.2 108.7 93.3Z" fill="#7F8097"></path><path d="M54.5 106.7C53.7 102.7 52.6 93.5 54.2 88.8C54.3 88.8 54.3 88.8 54.3 88.7C54.3 88 52.9 88.4 51.6 90C46.4 96.4 44.2 108.7 45 112.8C45.6 115.8 41.5 120 41.4 122.4C41.4 122.7 41.8 122.8 42 122.6C46.3 119.4 55.1 110 54.5 106.7Z" fill="#7F8097"></path><path d="M125.5 106.7C126.3 102.7 127.4 93.5 125.8 88.8C125.8 88.8 125.7 88.8 125.7 88.7C125.7 88 127.1 88.4 128.4 90C133.6 96.4 135.8 108.7 135 112.8C134.4 115.8 138.5 120 138.6 122.4C138.6 122.7 138.2 122.8 138 122.6C133.7 119.4 124.9 110 125.5 106.7Z" fill="#7F8097"></path><path d="M35.5 111.2C36.4 102.6 41.7 97.8 45.3 94.8C45.7 94.4 46.5 95.1 46.3 95.6C44.1 100.7 42.6 106.9 42.7 110.3C42.7 110.4 42.6 110.6 42.4 110.7C41.4 111.2 40.5 111.8 39.3 116.6C38.8 118.6 37.8 121.4 34.9 123.5C34.6 123.7 34.2 123.5 34.2 123.1C33.6 117.4 35 116.2 35.5 111.2Z" fill="#7F8097"></path><path d="M144.5 111.2C143.6 102.6 138.3 97.8 134.7 94.8C134.3 94.4 133.5 95.1 133.7 95.6C135.9 100.7 137.4 106.9 137.3 110.3C137.3 110.4 137.4 110.6 137.6 110.7C138.6 111.2 139.5 111.8 140.7 116.6C141.2 118.6 142.2 121.4 145.1 123.5C145.4 123.7 145.8 123.5 145.8 123.1C146.4 117.4 145 116.2 144.5 111.2Z" fill="#7F8097"></path><path d="M30.9 147.8C38.4 141.5 46.5 132.2 46.1 123.7C46 123.4 45.7 123.2 45.4 123.3C41.6 125.5 37.6 129.9 36 132.5L36 132.5C34.5 135 30.7 141.1 30.1 147.4C30 147.8 30.5 148.1 30.9 147.8Z" fill="#7F8097"></path><path d="M149.1 147.8C141.6 141.5 133.5 132.2 133.9 123.7C134 123.4 134.3 123.2 134.6 123.3C138.4 125.5 142.4 129.9 144 132.5L144 132.5C145.5 135 149.3 141.1 149.9 147.4C150 147.8 149.5 148.1 149.1 147.8Z" fill="#7F8097"></path><path d="M14 159.6C14.1 161.1 16.4 162.9 19.2 163C19.4 163 19.5 162.9 19.6 162.7C21.4 159 28 149.9 28 147.5C28 139.2 34.5 135.6 31.7 121C31.6 120.6 31.1 120.4 30.8 120.7C28.5 123.3 23.6 129 22.5 135.5C21.3 142.6 16.6 154.7 14.1 159.4C14 159.5 14 159.5 14 159.6Z" fill="#7F8097"></path><path d="M166 159.6C165.9 161.1 163.6 162.9 160.8 163C160.6 163 160.5 162.9 160.4 162.7C158.6 159 152 149.9 152 147.5C152 139.2 145.5 135.6 148.3 121C148.4 120.6 148.9 120.4 149.2 120.7C151.5 123.3 156.4 129 157.5 135.5C158.7 142.6 163.4 154.7 165.9 159.4C166 159.5 166 159.5 166 159.6Z" fill="#7F8097"></path><path d="M68.5 154C69.8 148.4 67.8 137.4 66.2 132.5C66.1 132 65.4 132.1 65.3 132.6C64.8 136.3 62.9 138.8 62.5 143C62 148.2 64.1 148.5 64.1 156.1C64.1 156.6 65 156.9 65.4 156.6C66.8 155.2 68.1 155.9 68.5 154Z" fill="#7F8097"></path><path d="M111.5 154C110.2 148.4 112.2 137.4 113.8 132.5C113.9 132 114.6 132.1 114.7 132.6C115.2 136.3 117.1 138.8 117.5 143C118 148.2 115.9 148.5 115.9 156.1C115.9 156.6 115 156.9 114.6 156.6C113.2 155.2 111.9 155.9 111.5 154Z" fill="#7F8097"></path><path d="M89 187.5V167.6C89 167.5 89 167.5 89 167.4C85.9 156.5 65.6 148.7 63.5 165.5C63.5 173.5 64 185 64.5 187.5C69 202 86.9 197 89 187.6C89 187.5 89 187.5 89 187.5Z" fill="#7F8097"></path><path d="M91 187.5V167.6C91 167.5 91 167.5 91 167.4C94.1 156.5 114.4 148.7 116.5 165.5C116.5 173.5 116 185 115.5 187.5C111 202 93.1 197 91 187.6C91 187.5 91 187.5 91 187.5Z" fill="#7F8097"></path><path d="M78.5 198C82.1 197.2 84.5 196.4 86 195.3C86.4 195.1 87 195.3 87 195.8C86.5 207.8 85.5 213.8 83.8 223.9C83.7 224.4 83 224.5 82.9 224C78.9 213.9 77.6 198.2 78.5 198Z" fill="#7F8097"></path><path d="M101.5 198C97.9 197.2 95.5 196.4 94 195.3C93.6 195.1 93 195.3 93 195.8C93.5 207.8 94.5 213.8 96.2 223.9C96.3 224.4 97 224.5 97.1 224C101.1 213.9 102.4 198.2 101.5 198Z" fill="#7F8097"></path><path d="M75.9 198.2C74.3 198.1 72.8 197.9 71.8 197.6C71.6 197.5 71.4 197.6 71.3 197.7C67.9 202.6 67 231.8 68 246C68.8 257.6 74.1 260.3 76.3 270.1C76.4 270.6 77 270.7 77.1 270.3C81.2 261.1 83 236.9 83 229.1C83 229 83 229 82.9 228.9C77.3 218.5 76.2 202.7 76.5 198.8C76.5 198.5 76.2 198.2 75.9 198.2Z" fill="#7F8097"></path><path d="M104.1 198.2C105.7 198.1 107.2 197.9 108.2 197.6C108.4 197.5 108.6 197.6 108.7 197.7C112.1 202.6 113 231.8 112 246C111.2 257.6 105.9 260.3 103.7 270.1C103.6 270.6 103 270.7 102.9 270.3C98.8 261.1 97 236.9 97 229.1C97 229 97 229 97.1 228.9C102.7 218.5 103.8 202.7 103.5 198.8C103.5 198.5 103.8 198.2 104.1 198.2Z" fill="#7F8097"></path><path d="M69.1 196.6C68.2 196.1 67.6 195.6 67 195C66.7 194.8 66.3 194.8 66.2 195.1C62 203.2 55.5 219.3 55.7 230.2C55.8 238.5 61.3 247 59 259.7C58.9 260.2 59.6 260.6 59.9 260.1C62.7 256.4 66.2 250.1 65.9 242.1C64.8 220.2 67.1 203.2 69.3 197.2C69.4 197 69.3 196.7 69.1 196.6Z" fill="#7F8097"></path><path d="M110.9 196.6C111.8 196.1 112.4 195.6 113 195C113.3 194.8 113.7 194.8 113.8 195.1C118 203.2 124.5 219.3 124.3 230.2C124.2 238.5 118.7 247 121 259.7C121.1 260.2 120.4 260.6 120.1 260.1C117.3 256.4 113.8 250.1 114.1 242.1C115.2 220.2 112.9 203.2 110.7 197.2C110.6 197 110.7 196.7 110.9 196.6Z" fill="#7F8097"></path><path d="M64.9 192.7C64 191.3 63.3 189.7 63 188.4C62.9 188 62.4 187.8 62.1 188.1C53.2 197.2 53.7 205.2 54.6 223.1C55.4 212.3 62.1 198.1 64.9 193.2C65 193.1 65 192.9 64.9 192.7Z" fill="#7F8097"></path><path d="M115.1 192.7C116 191.3 116.7 189.7 117 188.4C117.1 188 117.6 187.8 117.9 188.1C126.8 197.2 126.3 205.2 125.4 223.1C124.6 212.3 117.9 198.1 115.1 193.2C115 193.1 115 192.9 115.1 192.7Z" fill="#7F8097"></path><path d="M62 184.5C62 183.8 61.7 179.9 61.6 176.3C61.5 175.8 60.7 175.6 60.6 176.2C58.6 182 56 190.7 56.4 191.5C56.4 191.5 56.5 191.5 56.6 191.4C58.1 188.9 62 185.6 62 184.5Z" fill="#7F8097"></path><path d="M118 184.5C118 183.8 118.3 179.9 118.4 176.3C118.5 175.8 119.3 175.6 119.4 176.2C121.4 182 124 190.7 123.6 191.5C123.6 191.5 123.5 191.5 123.4 191.4C121.9 188.9 118 185.6 118 184.5Z" fill="#7F8097"></path><path d="M79.5 295.5C76.1 273.3 71.8 260.9 68.4 259.1C68.2 259 67.9 259.1 67.8 259.4C66.2 264.3 69.5 296.9 69.5 311C69.5 316.5 74.4 324.8 76 320.5C77.5 316.5 80.7 303.5 79.5 295.5Z" fill="#7F8097"></path><path d="M100.5 295.5C103.9 273.3 108.2 260.9 111.6 259.1C111.8 259 112.1 259.1 112.2 259.4C113.8 264.3 110.5 296.9 110.5 311C110.5 316.5 105.6 324.8 104 320.5C102.5 316.5 99.3 303.5 100.5 295.5Z" fill="#7F8097"></path><path d="M67.5 307C68 311 67.5 320.7 61 319.5C54.5 318.3 54.4 297 55 286C55.8 272.3 58 264 63.9 259.1C64 259 64 259 64.1 259C66 259.6 65 287.4 67.5 307Z" fill="#7F8097"></path><path d="M112.5 307C112 311 112.5 320.7 119 319.5C125.5 318.3 125.6 297 125 286C124.2 272.3 122 264 116.1 259.1C116 259 116 259 115.9 259C114 259.6 115 287.4 112.5 307Z" fill="#7F8097"></path><path d="M61 321.5C60.2 321.5 59.4 321.1 58.9 320.7C58.5 320.4 58.2 320.7 58.3 321.1C63.7 340.1 64.4 349 63.7 355.3C63.6 355.8 64 356 64.3 355.6C67.8 349.5 62.5 321.5 61 321.5Z" fill="#7F8097"></path><path d="M119 321.5C119.8 321.5 120.6 321.1 121.1 320.7C121.5 320.4 121.8 320.7 121.7 321.1C116.3 340.1 115.6 349 116.3 355.3C116.4 355.8 116 356 115.7 355.6C112.2 349.5 117.5 321.5 119 321.5Z" fill="#7F8097"></path><path d="M89 160.8V127.3C89 126.8 88.4 126.6 88.1 126.9C82.6 132.7 78.6 135.3 70.9 137.9C70.7 137.9 70.5 138.2 70.6 138.4C71.5 144.4 71.5 149.5 71.1 153.4C71 153.7 71.3 154 71.6 154C79.9 153.7 85.3 157.9 87.8 161.2C88.2 161.6 89 161.3 89 160.8Z" fill="#41BD98"></path><path d="M91 160.8V127.3C91 126.8 91.6 126.6 91.9 126.9C97.4 132.7 101.4 135.3 109.1 137.9C109.3 137.9 109.5 138.2 109.4 138.4C108.5 144.4 108.5 149.5 108.9 153.4C109 153.7 108.7 154 108.4 154C100.1 153.7 94.7 157.9 92.2 161.2C91.8 161.6 91 161.3 91 160.8Z" fill="#41BD98"></path></svg>